<svg id="Capa_1" enable-background="new 0 0 512 512" height="30" viewBox="0 0 512 512" width="30" xmlns="http://www.w3.org/2000/svg" xmlns:xlink="http://www.w3.org/1999/xlink"><linearGradient id="SVGID_1_" gradientUnits="userSpaceOnUse" x1="409.937" x2="409.937" y1="394.261" y2="394.261"><stop offset="0" stop-color="#8a7889"/><stop offset="1" stop-color="#6e566e"/></linearGradient><g><path d="m512 256c0 80.96-37.58 153.14-96.25 200.04-103.19 36.15-215.81 34.76-318.07-3.92l-11.07-4.18c-53.11-46.9-86.61-115.51-86.61-191.94 0-46.22 12.25-89.57 33.68-127 44.12-77.07 127.16-129 222.32-129s178.2 51.93 222.32 129c21.43 37.43 33.68 80.78 33.68 127z" fill="#464f6e"/><path d="m512 256c0 46.01-12.14 89.18-33.39 126.49-16.13 28.33-37.53 53.29-62.85 73.54 0 .01-.01.01-.01.01-103.19 36.15-215.81 34.76-318.07-3.92l-11.07-4.18c-15-13.24-28.43-28.22-39.99-44.61-29.37-41.66-46.62-92.48-46.62-147.33 0-46.22 12.25-89.57 33.68-127 11.92 20.82 26.68 39.8 43.75 56.42 46.12 44.92 109.12 72.58 178.57 72.58h.24c68.57-.06 130.82-27.08 176.74-71.04 17.75-16.98 33.05-36.49 45.34-57.96 21.43 37.43 33.68 80.78 33.68 127z" fill="#303c5a"/><g><path d="m471.66 310.65c0 55.93-21.15 106.91-55.9 145.38 0 .01-.01.01-.01.01-43.79 35.02-99.33 55.96-159.75 55.96-64.95 0-124.26-24.19-169.39-64.06-30.6-37.4-48.95-85.19-48.95-137.29 0-46.64 14.72-89.85 39.77-125.23 39.29-55.52 104.03-91.77 177.23-91.77.53 0 1.06 0 1.58.01 73.23.52 137.83 37.31 176.74 93.3 24.39 35.09 38.68 77.72 38.68 123.69z" fill="#81f700"/><path d="m471.66 310.65c0 55.93-21.15 106.91-55.9 145.38 0 .01-.01.01-.01.01-43.73 34.97-99.18 55.9-159.51 55.96v-418.34c73.23.52 137.83 37.31 176.74 93.3 24.39 35.09 38.68 77.72 38.68 123.69z" fill="#00cc7f"/><g><path d="m361.077 310.65c0 58.179-46.692 105.444-104.631 106.39-.586.027-1.186.027-1.786.027-58.765 0-106.417-47.638-106.417-106.417 0-58.765 47.652-106.403 106.417-106.403.6 0 1.199 0 1.786.027 57.939.945 104.631 48.211 104.631 106.376z" fill="#00cc7f"/><path d="m361.077 310.65c0 58.179-46.692 105.444-104.631 106.39v-212.767c57.939.946 104.631 48.212 104.631 106.377z" fill="#029291"/><g><path d="" fill="url(#SVGID_1_)"/><path d="m427.211 390.629c-2.758 7.089-11.9 9.008-17.27 3.638-2.452-2.452-3.585-5.956-2.918-9.354 3.505-17.843-1.759-37.058-15.764-50.77-22.014-21.534-57.792-21.028-79.22 1.079-21.201 21.88-20.988 56.793.626 78.407 13.672 13.659 32.647 18.776 50.277 15.338.653-.133 1.319-.186 1.972-.186 2.758 0 5.437 1.093 7.422 3.078 5.41 5.41 3.411 14.552-3.718 17.31-36.898 14.272-80.379 6.436-110.041-23.546-.72-.733-1.439-1.479-2.132-2.239-.613-.64-1.199-1.306-1.786-1.959-1.266 1.426-2.572 2.838-3.918 4.197-29.662 29.982-73.143 37.818-110.041 23.546-4.357-1.692-6.796-5.757-6.796-9.914 0-2.625.973-5.29 3.078-7.396 2.465-2.452 5.983-3.558 9.394-2.891 17.63 3.438 36.618-1.679 50.277-15.338 21.614-21.614 21.827-56.526.626-78.407-21.427-22.107-57.206-22.613-79.22-1.079-14.005 13.712-19.269 32.927-15.764 50.77.12.64.187 1.293.187 1.945 0 2.745-1.119 5.423-3.105 7.409-5.37 5.37-14.511 3.451-17.27-3.638-14.258-36.752-6.556-80.059 23.106-109.735 14.098-14.085 31.261-23.213 49.357-27.397-1.612-7.089-2.492-14.458-2.532-22-.227-42.162 24.985-78.46 61.177-94.464 6.982-3.091 14.858 1.972 14.858 9.608v.013c0 3.478-1.706 6.743-4.597 8.688-14.898 10.034-24.705 27.064-24.705 46.385 0 30.569 24.545 55.407 54.994 55.887.893.013 1.786 0 2.678-.014 29.582-.959 53.768-25.345 54.101-55.234.213-19.602-9.661-36.912-24.745-47.052-2.878-1.932-4.557-5.21-4.557-8.675 0-7.609 7.822-12.712 14.791-9.635 36.059 15.897 61.244 51.969 61.244 93.918 0 7.769-.866 15.311-2.492 22.573 18.069 4.184 35.232 13.312 49.317 27.397 29.665 29.678 37.367 72.986 23.109 109.737z" fill="#303c5a"/><path d="m427.211 390.629c-2.758 7.089-11.9 9.008-17.27 3.638-2.452-2.452-3.585-5.956-2.918-9.354 3.505-17.843-1.759-37.058-15.764-50.77-22.014-21.534-57.792-21.028-79.22 1.079-21.201 21.88-20.988 56.793.626 78.407 13.672 13.659 32.647 18.776 50.277 15.338.653-.133 1.319-.186 1.972-.186 2.758 0 5.437 1.093 7.422 3.078 5.41 5.41 3.411 14.552-3.718 17.31-36.898 14.272-80.379 6.436-110.041-23.546-.72-.733-1.439-1.479-2.132-2.239v-165.783c29.582-.959 53.768-25.345 54.101-55.234.213-19.602-9.661-36.912-24.745-47.052-2.878-1.932-4.557-5.21-4.557-8.675 0-7.609 7.822-12.712 14.791-9.635 36.059 15.897 61.244 51.969 61.244 93.918 0 7.769-.866 15.311-2.492 22.573 18.069 4.184 35.232 13.312 49.317 27.397 29.663 29.677 37.365 72.985 23.107 109.736z" fill="#22273b"/></g><path d="m287.094 310.65c0 17.323-13.552 31.475-30.648 32.394-.586.04-1.186.053-1.786.053-17.909 0-32.434-14.525-32.434-32.448 0-17.909 14.525-32.434 32.434-32.434.6 0 1.199.013 1.786.053 17.096.921 30.648 15.072 30.648 32.382z" fill="#fff"/></g><path d="m287.094 310.65c0 17.323-13.552 31.475-30.648 32.394v-64.775c17.096.92 30.648 15.071 30.648 32.381z" fill="#cff6ff"/></g><path d="m512 256c0 141.38-114.62 256-256 256s-256-114.62-256-256c0-46.22 12.25-89.57 33.68-127 44.12-77.07 127.16-129 222.32-129s178.2 51.93 222.32 129c21.43 37.43 33.68 80.78 33.68 127z" fill="none"/></g></svg>